# xmcd
#
# Track frame offsets:
#	150
#	18821
#	28567
#	40268
#	53793
#	65930
#	75249
#	87852
#	98838
#	113047
#	123129
#	134776
#	142070
#	152431
#	160425
#	172424
#
# Disc length: 2473 seconds
#
# Revision: 0
# Processed by: cddbd v1.5.1PL0 Copyright (c) Steve Scherf et al.
# Submitted via: dBpowerAMP V4.0
#
DISCID=d509a710
DTITLE=Alabama - Contrylegends
DYEAR=2003
DGENRE=Country
TTITLE0=I Wanna Be With Yuo Tonight
TTITLE1=My Sweet Country woman 
TTITLE2=Try Me
TTITLE3=Flying United
TTITLE4=All American Woman
TTITLE5=Hanging Up My Travellin' Shoes
TTITLE6=I Go On Loving You
TTITLE7=I'll Be Here, Call On Me
TTITLE8=Make It With You In My Mind
TTITLE9=Music Moves Me Like A River
TTITLE10=Guess I'm Still In Love With You
TTITLE11=Busy Body 
TTITLE12=Vacancy 
TTITLE13=Tonight Your Mald's gona Make The Bounds
TTITLE14=Lovin' You Is Killing Me
TTITLE15=Patches
EXTD=
EXTT0=
EXTT1=
EXTT2=
EXTT3=
EXTT4=
EXTT5=
EXTT6=
EXTT7=
EXTT8=
EXTT9=
EXTT10=
EXTT11=
EXTT12=
EXTT13=
EXTT14=
EXTT15=
PLAYORDER=
